<svg width="22" height="20" viewBox="0 0 22 20" fill="none" xmlns="http://www.w3.org/2000/svg">
<path d="M21 17.0799V3.22919C21 2.55781 20.5643 1.95407 19.8999 1.70473C17.3964 0.765254 14.6036 0.765254 12.1001 1.70473L11 2.11757L9.89986 1.70473C7.39638 0.765254 4.60362 0.765254 2.10014 1.70473C1.43569 1.95407 1 2.55781 1 3.22919V17.0799C1 18.0018 1.99247 18.6321 2.90485 18.2898C4.89175 17.5441 7.10825 17.5441 9.09515 18.2898L10.9863 18.9994H11.0137L12.9049 18.2898C14.8918 17.5441 17.1082 17.5441 19.0951 18.2898C20.0075 18.6321 21 18.0018 21 17.0799Z" stroke="#8DA05E" stroke-width="1.5"/>
<path opacity="0.3" d="M11 2.1178V18.991M11 18.991C11 18.9976 11.0072 19.0021 11.0138 18.9997M11 18.991C11 18.9976 10.9929 19.0021 10.9863 18.9997" stroke="#8DA05E" stroke-width="1.5"/>
</svg>
