<svg width="30" height="30" viewBox="0 0 30 30" fill="none" xmlns="http://www.w3.org/2000/svg">
<path d="M14.6942 1.04305C14.6401 1.04128 14.5838 1.04657 14.5258 1.06127C12.8874 1.48271 11.7206 2.98105 11.7187 4.68768C11.7188 6.42911 12.9184 7.89333 14.5322 8.31133V9.23327C13.4947 10.8502 11.1685 11.9305 8.99231 13.2936C7.88184 13.9892 6.81148 14.7718 6.00952 15.7958C5.20758 16.8197 4.6875 18.0975 4.6875 19.6886C4.6875 21.8027 5.29484 23.3342 5.96924 24.3734H24.0289C24.7039 23.3342 25.3143 21.8027 25.3143 19.6886C25.3143 18.0975 24.7906 16.8197 23.9886 15.7958C23.1867 14.7718 22.12 13.9892 21.0095 13.2936C18.8358 11.9321 16.509 10.8527 15.4697 9.23879V8.43493C17.1648 8.43316 18.6438 7.29083 19.0823 5.6618C19.3187 5.20337 18.7493 4.75505 18.3591 5.09232C17.9407 5.4352 17.4159 5.62553 16.875 5.62612C15.575 5.62612 14.5322 4.57959 14.5322 3.27963C14.5175 2.72267 14.7557 2.19341 15.0613 1.79831C15.3272 1.45464 15.0729 1.05708 14.6942 1.043L14.6942 1.04305ZM6.09193 25.3109C5.32097 25.3109 4.68751 25.949 4.68751 26.7199V28.5913C4.68703 28.7156 4.73596 28.835 4.82352 28.9232C4.91108 29.0115 5.03011 29.0614 5.15442 29.0619H24.8438C24.9056 29.0621 24.9669 29.0501 25.0241 29.0265C25.0813 29.0029 25.1333 28.9683 25.177 28.9245C25.2208 28.8808 25.2554 28.8288 25.279 28.7716C25.3026 28.7144 25.3146 28.6531 25.3143 28.5913V26.7199C25.3143 25.949 24.6772 25.3109 23.9063 25.3109H6.09193Z" fill="white"/>
</svg>
