<svg width="20" height="20" viewBox="0 0 20 20" fill="none" xmlns="http://www.w3.org/2000/svg">
<path d="M17.3576 0L14.2408 3.11686C13.6604 3.69727 13.543 4.56756 13.8875 5.26586L12.8657 6.28774C12.2049 5.97297 11.3905 6.08451 10.8389 6.62235C10.5186 6.35857 10.1203 6.21512 9.69995 6.21512C9.2203 6.21512 8.76937 6.40191 8.43022 6.74106C8.34187 6.82941 8.26409 6.9255 8.19705 7.02758C7.94896 6.90192 7.67326 6.83496 7.3871 6.83496C6.90745 6.83496 6.45652 7.02175 6.11737 7.36095C6.0281 7.45017 5.95041 7.54662 5.88388 7.64834C5.21037 7.30859 4.36606 7.41917 3.80428 7.98095C3.59398 8.19125 3.44733 8.44125 3.36337 8.70698C2.7946 8.59405 2.1813 8.75738 1.74139 9.19733C1.30148 9.63724 1.13819 10.2505 1.25108 10.8193C0.985351 10.9032 0.735307 11.0499 0.525008 11.2602C-0.151421 11.9367 -0.174167 13.0229 0.456531 13.7271C-0.174167 14.4313 -0.151421 15.5176 0.525008 16.194C0.736105 16.4052 0.987307 16.5522 1.25419 16.6359C1.1425 17.2038 1.30607 17.8156 1.74518 18.2548C2.08437 18.5939 2.5353 18.7807 3.01496 18.7807C3.13359 18.7807 3.25048 18.7692 3.36432 18.7469C3.4482 19.0133 3.59506 19.2641 3.80587 19.4749C4.15596 19.825 4.61578 20 5.07565 20C5.50439 20 5.93301 19.8477 6.27284 19.5434C6.61263 19.8477 7.04125 20 7.46995 20C7.92977 20 8.38964 19.825 8.73972 19.4749C8.95002 19.2646 9.09667 19.0145 9.18063 18.7488C9.29683 18.7719 9.41483 18.7836 9.53283 18.7836C9.99266 18.7836 10.4525 18.6086 10.8026 18.2585C11.2426 17.8186 11.4059 17.2053 11.293 16.6365C11.5587 16.5526 11.8087 16.4059 12.019 16.1956C12.5808 15.6338 12.6913 14.7896 12.3516 14.1161C12.4533 14.0495 12.5498 13.9718 12.639 13.8826C12.9782 13.5434 13.165 13.0925 13.165 12.6128C13.165 12.3266 13.098 12.0509 12.9724 11.8028C13.0744 11.7358 13.1705 11.658 13.2589 11.5697C13.5981 11.2305 13.7848 10.7796 13.7848 10.2999C13.7848 9.87959 13.6414 9.48134 13.3776 9.16098C13.9155 8.60937 14.027 7.79495 13.7122 7.13421L14.734 6.11236C14.9941 6.24069 15.2779 6.30542 15.562 6.30542C16.0404 6.30542 16.5188 6.12329 16.883 5.75904L19.9999 2.64223L17.3576 0ZM18.3068 2.64223L17.3576 3.59144L16.4084 2.64223L17.3576 1.69301L18.3068 2.64223ZM11.6687 7.48473C11.7854 7.36805 11.9387 7.30971 12.092 7.30971C12.2453 7.30971 12.3985 7.36805 12.5152 7.48473C12.7487 7.71813 12.7487 8.09787 12.5152 8.33123C12.2818 8.5646 11.9021 8.5646 11.6687 8.33127C11.5557 8.21818 11.4934 8.0679 11.4934 7.908C11.4934 7.7481 11.5557 7.59778 11.6687 7.48473ZM11.546 12.0408C11.6381 12.0691 11.7224 12.1196 11.7924 12.1896C11.9055 12.3026 11.9677 12.4529 11.9677 12.6128C11.9677 12.7727 11.9054 12.923 11.7924 13.0361C11.559 13.2694 11.1793 13.2694 10.9459 13.036C10.8329 12.923 10.7706 12.7727 10.7706 12.6128C10.7706 12.4529 10.8329 12.3026 10.9459 12.1895C11.059 12.0765 11.2093 12.0142 11.3692 12.0142C11.4264 12.0142 11.4823 12.0225 11.5358 12.0379C11.5393 12.0389 11.5426 12.0399 11.546 12.0408ZM8.26302 15.719C8.05272 15.9293 7.90607 16.1794 7.82211 16.4451C7.28395 16.3383 6.70608 16.4789 6.27276 16.8669C5.84027 16.4796 5.2638 16.3387 4.72652 16.4444C4.64272 16.1775 4.49575 15.9264 4.28465 15.7153C4.07719 15.5079 3.82782 15.3577 3.55571 15.2722C3.66094 14.7352 3.51999 14.1593 3.13296 13.7271C3.52103 13.2938 3.66162 12.716 3.55475 12.1778C3.82052 12.0938 4.07052 11.9471 4.28082 11.7368C4.49112 11.5265 4.63773 11.2765 4.72169 11.0108C4.83789 11.0338 4.95589 11.0456 5.07393 11.0456C5.53376 11.0456 5.99358 10.8705 6.34367 10.5205C6.43274 10.4314 6.51035 10.3351 6.57679 10.2337C6.82492 10.3594 7.1007 10.4264 7.38698 10.4264C7.86664 10.4264 8.31761 10.2396 8.65676 9.90046C8.74579 9.81143 8.82336 9.71526 8.88972 9.61382C9.13785 9.73956 9.41364 9.80656 9.69987 9.80656C9.90522 9.80656 10.1053 9.77208 10.2936 9.70628C10.2278 9.89459 10.1933 10.0946 10.1933 10.3C10.1933 10.5862 10.2603 10.862 10.386 11.1101C10.2846 11.1765 10.1884 11.2541 10.0994 11.3431C9.76025 11.6823 9.57345 12.1332 9.57345 12.6129C9.57345 12.8991 9.64046 13.1749 9.7662 13.4231C9.66468 13.4895 9.56843 13.5671 9.47936 13.6562C9.03945 14.0961 8.87616 14.7094 8.98909 15.2782C8.72336 15.3621 8.47332 15.5087 8.26302 15.719ZM12.4123 10.7232C12.2992 10.8363 12.1489 10.8985 11.989 10.8985C11.8292 10.8985 11.6788 10.8363 11.5658 10.7232C11.4527 10.6102 11.3904 10.4598 11.3904 10.3C11.3904 10.1401 11.4527 9.9898 11.5658 9.87671H11.5658C11.6789 9.76366 11.8292 9.70137 11.9891 9.70137C12.149 9.70137 12.2992 9.76366 12.4123 9.87671C12.5254 9.98976 12.5876 10.1401 12.5876 10.3C12.5876 10.4598 12.5253 10.6101 12.4123 10.7232ZM9.27668 7.58757C9.38973 7.47452 9.54005 7.41226 9.69991 7.41226C9.85981 7.41226 10.0101 7.47452 10.1232 7.58757C10.2362 7.70066 10.2985 7.85094 10.2985 8.01084C10.2985 8.1707 10.2362 8.32102 10.1232 8.43407V8.43411C10.0101 8.54716 9.85981 8.60945 9.69991 8.60945C9.54005 8.60945 9.38973 8.54716 9.27664 8.43411C9.16359 8.32106 9.10134 8.17074 9.10134 8.01088C9.10134 7.85094 9.16359 7.70062 9.27668 7.58757ZM6.96379 8.20741C7.07684 8.09436 7.22716 8.03211 7.38702 8.03211C7.54692 8.03211 7.6972 8.09436 7.81029 8.20741C7.88029 8.27744 7.93073 8.3618 7.95906 8.45382C7.95994 8.45725 7.96098 8.46061 7.96189 8.46404C7.97734 8.51755 7.98564 8.57346 7.98564 8.63068C7.98564 8.79058 7.92335 8.94086 7.81029 9.05395C7.69724 9.167 7.54692 9.22926 7.38702 9.22926C7.22716 9.22926 7.07684 9.167 6.96379 9.05395C6.73039 8.82055 6.73039 8.44081 6.96379 8.20741ZM4.6507 8.82745C4.76738 8.71077 4.9207 8.65243 5.07397 8.65243C5.22725 8.65243 5.38052 8.71077 5.49724 8.82745C5.73065 9.06086 5.73065 9.44059 5.49724 9.67396C5.26384 9.90732 4.8841 9.90732 4.65074 9.674C4.53769 9.56095 4.4754 9.41062 4.4754 9.25072C4.47536 9.09083 4.53765 8.9405 4.6507 8.82745ZM2.58781 10.0438C2.70087 9.93078 2.85119 9.86849 3.01109 9.86849C3.17099 9.86849 3.32127 9.93078 3.43432 10.0438C3.66772 10.2772 3.66772 10.657 3.43432 10.8903C3.20091 11.1237 2.82118 11.1237 2.58781 10.8903C2.35441 10.657 2.35441 10.2772 2.58781 10.0438ZM1.37143 12.1067C1.48448 11.9937 1.6348 11.9314 1.7947 11.9314C1.9546 11.9314 2.10488 11.9937 2.21794 12.1067C2.45134 12.3401 2.45134 12.7199 2.21794 12.9532C1.98457 13.1866 1.60484 13.1866 1.37143 12.9532C1.13803 12.7199 1.13803 12.3401 1.37143 12.1067ZM1.37143 14.5011C1.48815 14.3843 1.64139 14.326 1.7947 14.326C1.94798 14.326 2.10129 14.3843 2.21794 14.501C2.45134 14.7344 2.45134 15.1142 2.21794 15.3476C2.10488 15.4606 1.95456 15.5229 1.79466 15.5229C1.63476 15.5229 1.48448 15.4606 1.37143 15.3476C1.13803 15.1142 1.13803 14.7344 1.37143 14.5011ZM2.59161 17.4083C2.47855 17.2953 2.41626 17.145 2.41626 16.9851C2.41626 16.8252 2.47855 16.6749 2.59161 16.5618C2.70466 16.4488 2.85498 16.3865 3.01484 16.3865C3.17474 16.3865 3.32502 16.4488 3.43811 16.5618C3.67147 16.7952 3.67147 17.175 3.43811 17.4083C3.32506 17.5214 3.17474 17.5836 3.01484 17.5836C2.85498 17.5836 2.7047 17.5214 2.59161 17.4083ZM5.49884 18.6284C5.26544 18.8618 4.8857 18.8619 4.6523 18.6285C4.53925 18.5154 4.47695 18.3651 4.47695 18.2052C4.47695 18.0453 4.53925 17.895 4.6523 17.7819C4.88574 17.5485 5.26548 17.5486 5.4988 17.7819C5.7322 18.0153 5.7322 18.3951 5.49884 18.6284ZM7.89314 18.6284C7.65973 18.8618 7.28 18.8618 7.04663 18.6285C6.81323 18.3951 6.81323 18.0153 7.04663 17.7819C7.28 17.5485 7.65973 17.5485 7.89314 17.7819C8.00619 17.895 8.06848 18.0453 8.06848 18.2052C8.06848 18.3651 8.00619 18.5154 7.89314 18.6284ZM9.95602 17.412C9.72262 17.6454 9.34288 17.6454 9.10952 17.4121C8.87612 17.1787 8.87612 16.7989 9.10952 16.5655C9.34288 16.3321 9.72262 16.3321 9.95602 16.5655C10.0691 16.6786 10.1314 16.8289 10.1314 16.9888C10.1314 17.1487 10.0691 17.299 9.95602 17.412ZM11.1724 15.3492C11.0594 15.4622 10.909 15.5245 10.7491 15.5245C10.5892 15.5245 10.439 15.4622 10.3259 15.3492C10.0925 15.1158 10.0925 14.736 10.3259 14.5027C10.5593 14.2692 10.939 14.2692 11.1724 14.5027C11.4058 14.736 11.4058 15.1158 11.1724 15.3492ZM15.5619 5.10915C15.3826 5.10915 15.2141 5.03932 15.0873 4.91258C14.9605 4.7858 14.8907 4.61724 14.8907 4.43795C14.8907 4.25866 14.9605 4.0901 15.0873 3.96332L15.5619 3.48869L16.5111 4.43791L16.0365 4.91254C15.9097 5.03936 15.7412 5.10915 15.5619 5.10915Z" fill="#ABABAB"/>
</svg>
